<svg xmlns="http://www.w3.org/2000/svg" version="1.1" xmlns:xlink="http://www.w3.org/1999/xlink" xmlns:svgjs="http://svgjs.dev/svgjs" width="30" height="30" viewBox="0 0 2000 1500"><rect width="30" height="30" fill="#ffffff"></rect><g transform="matrix(0.75,0,0,0.75,249.090909090909,282.7536437246964)"><svg viewBox="0 0 396 247" data-background-color="#ffffff" preserveAspectRatio="xMidYMid meet" height="1247" width="2000" xmlns="http://www.w3.org/2000/svg" xmlns:xlink="http://www.w3.org/1999/xlink"><g id="tight-bounds" transform="matrix(1,0,0,1,0.2400000000000091,-0.09999999999999432)"><svg viewBox="0 0 395.52 247.2" height="247.2" width="395.52"><g><svg></svg></g><g><svg viewBox="0 0 395.52 247.2" height="247.2" width="395.52"><g transform="matrix(1,0,0,1,75.54432,81.79797189360673)"><svg viewBox="0 0 244.43135999999998 83.60405621278653" height="83.60405621278653" width="244.43135999999998"><g><svg viewBox="0 0 244.43135999999998 83.60405621278653" height="83.60405621278653" width="244.43135999999998"><g><svg viewBox="0 0 430.22933821082546 147.15344944350758" height="83.60405621278653" width="244.43135999999998"><g><svg viewBox="0 0 244.43135999999998 147.15344944350758" height="147.15344944350758" width="244.43135999999998"><g id="textblocktransform"><svg viewBox="0 0 244.43135999999998 147.15344944350758" height="147.15344944350758" width="244.43135999999998" id="textblock"><g><svg viewBox="0 0 244.43135999999998 147.15344944350758" height="147.15344944350758" width="244.43135999999998"><g transform="matrix(1,0,0,1,0,0)"><svg width="244.43135999999998" viewBox="0.45 -35.35 59.3 35.7" height="147.15344944350758" data-palette-color="#919591"><path d="M29.15 0L17.7-31.5 16.05-31.5 4.5 0 0.45 0 13.25-35 20.45-35 33.2 0 29.15 0ZM6.7-9.2L6.7-12.7 27.1-12.7 27.1-9.2 6.7-9.2ZM36.15-7.45L39.8-8.9Q40.1-7.55 41.07-6.23 42.05-4.9 43.77-4.03 45.5-3.15 48.2-3.15L48.2-3.15Q52.05-3.15 53.9-4.95 55.75-6.75 55.75-9.2L55.75-9.2Q55.75-11.15 54.7-12.4 53.65-13.65 51.85-14.48 50.05-15.3 47.8-15.95L47.8-15.95Q45.8-16.5 43.82-17.18 41.85-17.85 40.25-18.88 38.65-19.9 37.7-21.55 36.75-23.2 36.75-25.65L36.75-25.65Q36.75-28.6 38.15-30.78 39.55-32.95 42.1-34.15 44.65-35.35 48.05-35.35L48.05-35.35Q51-35.35 53.2-34.5 55.4-33.65 56.87-32.13 58.35-30.6 59.05-28.6L59.05-28.6 55.5-27.25Q55.15-28.4 54.15-29.48 53.15-30.55 51.55-31.25 49.95-31.95 47.9-31.95L47.9-31.95Q45.9-31.95 44.27-31.25 42.65-30.55 41.7-29.25 40.75-27.95 40.75-26.1L40.75-26.1Q40.75-24.1 41.87-22.93 43-21.75 44.87-21.03 46.75-20.3 49-19.65L49-19.65Q51.05-19 52.97-18.25 54.9-17.5 56.42-16.4 57.95-15.3 58.85-13.65 59.75-12 59.75-9.6L59.75-9.6Q59.75-6.95 58.5-4.67 57.25-2.4 54.72-1.03 52.2 0.35 48.25 0.35L48.25 0.35Q44.95 0.35 42.45-0.68 39.95-1.7 38.35-3.45 36.75-5.2 36.15-7.45L36.15-7.45Z" opacity="1" transform="matrix(1,0,0,1,0,0)" fill="#000000" class="wordmark-text-0" data-fill-palette-color="primary" id="text-0"></path></svg></g></svg></g></svg></g></svg></g><g transform="matrix(1,0,0,1,279.17075773082547,22.930774572463918)"><svg viewBox="0 0 151.05858048 101.29190029857975" height="101.29190029857975" width="151.05858048"><g><svg xmlns="http://www.w3.org/2000/svg" xmlns:xlink="http://www.w3.org/1999/xlink" version="1.1" x="0" y="0" viewBox="2.2 15.4 85.89999999999999 57.6" enable-background="new 0 0 90 90" xml:space="preserve" height="101.29190029857975" width="151.05858048" class="icon-icon-0" data-fill-palette-color="accent" id="icon-0"><g fill="#636365" data-fill-palette-color="accent"><path d="M6.6 25C6.6 26.4 7.7 27.5 9.1 27.5S11.6 26.4 11.6 25 10.5 22.5 9.1 22.5 6.6 23.6 6.6 25M10.7 25C10.7 25.9 10 26.6 9.1 26.6S7.5 25.9 7.5 25 8.2 23.4 9.1 23.4 10.7 24.1 10.7 25" fill="#000000" data-fill-palette-color="accent"></path><path d="M64.3 27.8H17.2V41.9H64.3zM63.4 41H18.1V28.7H63.4z" fill="#000000" data-fill-palette-color="accent"></path><path d="M17.2 53.3H30V43.6H17.2zM18.1 44.5H29V52.4H18.1z" fill="#000000" data-fill-palette-color="accent"></path><rect x="32.9" y="44.2" width="31" height="0.9" fill="#000000" data-fill-palette-color="accent"></rect><rect x="32.9" y="46.6" width="31" height="0.9" fill="#000000" data-fill-palette-color="accent"></rect><rect x="32.9" y="49.1" width="31" height="0.9" fill="#000000" data-fill-palette-color="accent"></rect><rect x="32.9" y="51.6" width="18" height="0.9" fill="#000000" data-fill-palette-color="accent"></rect><rect x="27.8" y="70.5" width="26.1" height="2.5" fill="#000000" data-fill-palette-color="accent"></rect><path d="M4.1 20.5H77.6V31.4H79.4V20.5C79.4 17.7 77.1 15.4 74.3 15.4H7.3C4.5 15.4 2.2 17.7 2.2 20.5V58.5C2.2 61.3 4.5 63.6 7.3 63.6H31.4L31 69.4H32.8L33.3 63.6H48.4L48.9 69.4H50.7L50.2 63.6H66.1V57.6H4.1z" fill="#000000" data-fill-palette-color="accent"></path><path d="M82.2 32.3H73C69.7 32.3 67.1 35 67.1 38.2V66.3C67.1 69.6 69.8 72.2 73 72.2H82.2C85.5 72.2 88.1 69.5 88.1 66.3V38.2C88.1 35 85.4 32.3 82.2 32.3M68.2 64.8V38.6H86.9V64.8zM75.9 35.2H79.2C79.5 35.2 79.8 35.5 79.8 35.8S79.5 36.4 79.2 36.4H75.9C75.6 36.4 75.3 36.1 75.3 35.8S75.5 35.2 75.9 35.2M79.3 68C79.3 68.7 78.7 69.3 78 69.3H77.3C76.6 69.3 76 68.7 76 68S76.6 66.7 77.3 66.7H78C78.6 66.6 79.3 67.2 79.3 68" fill="#000000" data-fill-palette-color="accent"></path><path d="M68.9 49.9H86.1V43.2H68.9zM69.7 44H85.2V49H69.7z" fill="#000000" data-fill-palette-color="accent"></path><path d="M77.2 50.3H68.8V57H77.2zM76.4 56.2H69.8V51.2H76.4z" fill="#000000" data-fill-palette-color="accent"></path><path d="M77.7 57H86.1V50.3H77.7zM78.6 51.2H85.2V56.2H78.6z" fill="#000000" data-fill-palette-color="accent"></path><path d="M77.4 42.6C78.4 42.6 79.2 41.8 79.2 40.8S78.3 39 77.4 39 75.6 39.8 75.6 40.8 76.4 42.6 77.4 42.6M77.4 39.9C77.9 39.9 78.3 40.3 78.3 40.8S77.9 41.7 77.4 41.7 76.5 41.3 76.5 40.8 76.8 39.9 77.4 39.9" fill="#000000" data-fill-palette-color="accent"></path><rect x="68.9" y="57.9" width="17.2" height="0.9" fill="#000000" data-fill-palette-color="accent"></rect><rect x="68.9" y="59.6" width="17.2" height="0.9" fill="#000000" data-fill-palette-color="accent"></rect><rect x="68.9" y="61.2" width="17.2" height="0.9" fill="#000000" data-fill-palette-color="accent"></rect><rect x="68.9" y="62.8" width="10.1" height="0.9" fill="#000000" data-fill-palette-color="accent"></rect></g></svg></g></svg></g></svg></g></svg></g></svg></g><g><path d="M245.816 0c68.262 0 123.6 55.338 123.6 123.6 0 68.262-55.338 123.6-123.6 123.6-49.816 0-92.749-29.471-112.315-71.93h4.166c19.296 40.315 60.471 68.16 108.149 68.16 66.18 0 119.83-53.65 119.83-119.83 0-66.18-53.65-119.83-119.83-119.83-47.678 0-88.852 27.845-108.149 68.16l-4.166 0c19.565-42.458 62.498-71.93 112.315-71.93z" fill="#000000" stroke="transparent" data-fill-palette-color="tertiary"></path></g></svg></g><defs></defs></svg><rect width="395.52" height="247.2" fill="none" stroke="none" visibility="hidden"></rect></g></svg></g></svg>